<svg width="444" height="131" viewBox="0 0 444 131" fill="none" xmlns="http://www.w3.org/2000/svg">
<path d="M0 0H119.947V130.562H0V0Z" fill="#FF6B00"/>
<circle cx="55.462" cy="24.414" r="19.668" fill="white" stroke="white"/>
<path d="M93.1445 109.863L59.9734 122.07L26.5369 109.332L26.8023 87.8371L60.2388 100.575L68.9959 96.8597L5.83813 72.7111L59.708 51.4816L114.109 72.4457L76.957 86.7756L67.4037 82.5297L93.1445 72.4457L59.9734 59.4426L26.2715 72.4457L79.3453 93.1445V100.84L82.5298 98.7173L84.3874 100.044V90.7562L93.1445 87.8371V109.863Z" fill="white"/>
<path d="M43.5205 72.4457L59.9734 65.8115L76.4263 72.4457L59.9734 79.0799L43.5205 72.4457Z" fill="white"/>
<circle cx="55.1968" cy="24.1486" r="14.626" fill="#FF6B00" stroke="white"/>
<path d="M80.9376 53.3392L67.9346 40.0708L71.3844 36.3556L84.9182 49.8894L80.9376 53.3392Z" fill="white" stroke="white"/>
<path d="M67.9972 24H63.4982C63.4982 24 63.4982 20.8927 60.7488 18.5025C57.9994 16.1123 55 16.3512 55 16.3512V12.0488C55 12.0488 59.749 11.3317 63.9981 15.3952C68.2472 19.4586 67.9972 24 67.9972 24Z" fill="white"/>
<path d="M171.127 11.2219V20.5289H151.698V30.5832H166.236V39.6185H151.698V58.9119H140.081V11.2219H171.127Z" fill="black"/>
<path d="M191.567 11.2219V35.0669V58.9119H179.95V11.2219H191.567Z" fill="black"/>
<path d="M245.366 58.9119H233.749L214.319 29.4963V58.9119H202.703V11.2219H214.319L233.749 40.7734V11.2219H245.366V58.9119Z" fill="black"/>
<path d="M274.37 11.2219C279.398 11.2219 283.791 12.2183 287.55 14.211C291.309 16.2038 294.207 19.0117 296.245 22.6349C298.329 26.2128 299.37 30.3568 299.37 35.0669C299.37 39.7318 298.329 43.8758 296.245 47.4989C294.207 51.1221 291.286 53.9301 287.482 55.9228C283.723 57.9155 279.352 58.9119 274.37 58.9119H256.504V11.2219H274.37ZM273.623 48.8576C278.016 48.8576 281.436 47.6574 283.881 45.2571C286.327 42.8567 287.55 39.46 287.55 35.0669C287.55 30.6738 286.327 27.2545 283.881 24.8088C281.436 22.3632 278.016 21.1404 273.623 21.1404H268.12V48.8576H273.623Z" fill="black"/>
<path d="M138.111 97.0953C138.111 92.3852 139.13 88.1959 141.168 84.5274C143.206 80.8137 146.037 77.9378 149.66 75.8998C153.328 73.8164 157.472 72.7748 162.092 72.7748C167.753 72.7748 172.599 74.2693 176.63 77.2585C180.66 80.2476 183.355 84.3236 184.714 89.4867H171.942C170.991 87.4939 169.632 85.9767 167.866 84.9351C166.145 83.8934 164.175 83.3726 161.956 83.3726C158.378 83.3726 155.479 84.618 153.26 87.109C151.041 89.5999 149.931 92.9287 149.931 97.0953C149.931 101.262 151.041 104.591 153.26 107.082C155.479 109.573 158.378 110.818 161.956 110.818C164.175 110.818 166.145 110.297 167.866 109.256C169.632 108.214 170.991 106.697 171.942 104.704H184.714C183.355 109.867 180.66 113.943 176.63 116.932C172.599 119.876 167.753 121.348 162.092 121.348C157.472 121.348 153.328 120.329 149.66 118.291C146.037 116.208 143.206 113.332 141.168 109.663C139.13 105.995 138.111 101.805 138.111 97.0953Z" fill="black"/>
<path d="M217.1 121.484C212.616 121.484 208.494 120.442 204.735 118.359C201.022 116.275 198.055 113.377 195.836 109.663C193.662 105.904 192.575 101.692 192.575 97.0274C192.575 92.3626 193.662 88.1733 195.836 84.4595C198.055 80.7458 201.022 77.8472 204.735 75.7639C208.494 73.6806 212.616 72.6389 217.1 72.6389C221.583 72.6389 225.682 73.6806 229.396 75.7639C233.155 77.8472 236.099 80.7458 238.227 84.4595C240.401 88.1733 241.488 92.3626 241.488 97.0274C241.488 101.692 240.401 105.904 238.227 109.663C236.053 113.377 233.109 116.275 229.396 118.359C225.682 120.442 221.583 121.484 217.1 121.484ZM217.1 110.886C220.904 110.886 223.938 109.618 226.203 107.082C228.512 104.545 229.667 101.194 229.667 97.0274C229.667 92.8155 228.512 89.464 226.203 86.9731C223.938 84.4369 220.904 83.1688 217.1 83.1688C213.25 83.1688 210.17 84.4142 207.86 86.9052C205.596 89.3961 204.464 92.7702 204.464 97.0274C204.464 101.239 205.596 104.613 207.86 107.15C210.17 109.641 213.25 110.886 217.1 110.886Z" fill="black"/>
<path d="M262.285 112.041H277.502V121.008H250.668V73.3183H262.285V112.041Z" fill="black"/>
<path d="M297.377 112.041H312.595V121.008H285.761V73.3183H297.377V112.041Z" fill="black"/>
<path d="M332.47 82.6253V92.272H348.027V101.239H332.47V111.701H350.065V121.008H320.853V73.3183H350.065V82.6253H332.47Z" fill="black"/>
<path d="M391.981 88.3997C391.121 86.8146 389.875 85.6144 388.245 84.7992C386.66 83.9387 384.78 83.5084 382.606 83.5084C378.847 83.5084 375.836 84.7539 373.571 87.2448C371.307 89.6905 370.174 92.974 370.174 97.0953C370.174 101.488 371.352 104.93 373.707 107.421C376.107 109.867 379.391 111.09 383.558 111.09C386.411 111.09 388.811 110.365 390.759 108.916C392.751 107.467 394.201 105.383 395.106 102.666H380.365V94.1062H405.636V104.908C404.776 107.806 403.304 110.501 401.22 112.992C399.182 115.483 396.578 117.498 393.408 119.038C390.238 120.578 386.66 121.348 382.674 121.348C377.964 121.348 373.752 120.329 370.039 118.291C366.37 116.208 363.494 113.332 361.411 109.663C359.373 105.995 358.354 101.805 358.354 97.0953C358.354 92.3852 359.373 88.1959 361.411 84.5274C363.494 80.8137 366.37 77.9378 370.039 75.8998C373.707 73.8164 377.896 72.7748 382.606 72.7748C388.313 72.7748 393.114 74.1561 397.009 76.9188C400.949 79.6815 403.553 83.5084 404.821 88.3997H391.981Z" fill="#FF6B00"/>
<path d="M426.405 82.6253V92.272H441.962V101.239H426.405V111.701H444V121.008H414.788V73.3183H444V82.6253H426.405Z" fill="black"/>
<path d="M386.154 72.2723L368.139 76.9147C368.139 76.9147 367.536 63.0923 364.39 63.7698C362.723 64.1285 360.638 65.9999 360.638 65.9999L360.106 63.4232C360.106 63.4232 362.494 61.3002 372.047 57.8504C381.417 55.9472 386.908 55.7274 386.908 55.7274L387.183 58.654C387.183 58.654 383.458 58.5848 382.425 59.3365C381.601 60.2387 386.154 72.2723 386.154 72.2723Z" fill="black" stroke="black"/>
<path d="M387.82 68.6729L390.3 65.4299L387.057 62.95L384.577 66.193L387.82 68.6729ZM385.882 57.9165L386.943 65.8776L387.934 65.7454L386.873 57.7843L385.882 57.9165Z" fill="black"/>
</svg>
